<?xml version="1.0" encoding="utf-8"?>
<!-- Generator: Adobe Illustrator 16.0.0, SVG Export Plug-In . SVG Version: 6.00 Build 0)  -->
<!DOCTYPE svg PUBLIC "-//W3C//DTD SVG 1.1//EN" "http://www.w3.org/Graphics/SVG/1.1/DTD/svg11.dtd" [
	<!ENTITY ns_flows "http://ns.adobe.com/Flows/1.0/">
	<!ENTITY ns_extend "http://ns.adobe.com/Extensibility/1.0/">
	<!ENTITY ns_ai "http://ns.adobe.com/AdobeIllustrator/10.0/">
	<!ENTITY ns_graphs "http://ns.adobe.com/Graphs/1.0/">
]>
<svg version="1.1" id="Capa_1" xmlns:x="&ns_extend;" xmlns:i="&ns_ai;" xmlns:graph="&ns_graphs;"
	 xmlns="http://www.w3.org/2000/svg" xmlns:xlink="http://www.w3.org/1999/xlink" xmlns:a="http://ns.adobe.com/AdobeSVGViewerExtensions/3.0/"
	 x="0px" y="0px" width="111.365px" height="12.419px" viewBox="0 0 111.365 12.419" enable-background="new 0 0 111.365 12.419"
	 xml:space="preserve">
<g>
	<g>
		<path fill="#FFFFFF" d="M2.115,10.621v0.162c0,0.791,0.217,0.936,1.481,1.043v0.434c-0.867-0.074-1.265-0.09-1.789-0.09
			c-0.506,0-0.922,0.016-1.808,0.09v-0.434c1.283-0.107,1.446-0.234,1.482-1.205l0.38-8.839V1.655c0-0.81-0.253-1.007-1.5-1.062
			v-0.45c0.687,0.055,1.012,0.072,1.5,0.072c0.632,0,1.03-0.018,1.716-0.09l3.361,9.108l3.397-9.108
			c0.795,0.072,1.229,0.09,1.735,0.09c0.452,0,0.759-0.018,1.446-0.072v0.432c-1.247,0.091-1.5,0.271-1.5,1.063v0.144l0.181,8.839
			c0.018,0.971,0.199,1.115,1.5,1.205v0.434c-1.084-0.09-1.608-0.127-2.259-0.127s-1.175,0.037-2.277,0.127v-0.434
			c1.229-0.072,1.5-0.27,1.5-1.115c0,0,0-0.035,0-0.09l-0.145-9.325l-3,8.028C7.464,9.505,7.41,9.63,7.229,10.152
			c-0.217,0.576-0.145,0.379-0.235,0.666l-0.09,0.234l-0.072,0.234l-0.073,0.18l-0.072,0.197l-0.072,0.199H6.343
			c-0.524-1.494-0.289-0.865-0.922-2.611L2.476,1.26L2.115,10.621z"/>
		<path fill="#FFFFFF" d="M21.829,9.431c-0.217,1.855-1.409,2.953-3.217,2.953c-2.223,0-3.632-1.709-3.632-4.447
			c0-2.609,1.428-4.409,3.506-4.409c2.079,0,3.271,1.512,3.325,4.229h-5.367c0.036,1.35,0.126,1.998,0.343,2.574
			c0.379,0.973,1.048,1.459,2.042,1.459c1.265,0,2.078-0.828,2.295-2.359H21.829z M20.365,7.111
			c-0.09-2.125-0.705-3.116-1.897-3.116c-1.138,0-1.807,1.063-1.988,3.116H20.365z"/>
		<path fill="#FFFFFF" d="M23.075,3.853c1.03-0.108,1.645-0.217,2.386-0.433c0.108,0.738,0.126,0.936,0.163,1.71
			c0.416-1.062,1.174-1.638,2.15-1.638c0.867,0,1.536,0.63,1.536,1.439c0,0.558-0.289,0.882-0.777,0.882
			c-0.397,0-0.723-0.27-0.723-0.594c0-0.09,0-0.09,0.072-0.378C27.9,4.77,27.9,4.752,27.9,4.662c0-0.234-0.235-0.414-0.542-0.414
			c-0.958,0-1.554,1.134-1.554,2.916v3.762c0,0.775,0.199,0.92,1.301,0.973v0.361c-0.958-0.09-1.428-0.109-2.024-0.109
			c-0.614,0-1.066,0.02-2.024,0.109v-0.361c1.103-0.053,1.301-0.197,1.301-0.973V5.328c-0.018-1.17,0.018-1.135-1.283-1.17V3.853z"
			/>
		<path fill="#FFFFFF" d="M36.339,6.3h-0.398c-0.325-1.567-1.012-2.323-2.096-2.323c-1.355,0-2.15,1.477-2.15,3.959
			c0,2.594,0.687,3.871,2.096,3.871c1.121,0,1.789-0.773,2.006-2.377h0.723c-0.217,1.926-1.247,2.971-2.874,2.971
			c-2.15,0-3.524-1.746-3.524-4.482c0-2.591,1.482-4.427,3.614-4.427c0.723,0,1.247,0.216,1.807,0.756l0.47-0.918h0.326V6.3z"/>
		<path fill="#FFFFFF" d="M44.832,9.431c-0.217,1.855-1.41,2.953-3.217,2.953c-2.223,0-3.632-1.709-3.632-4.447
			c0-2.609,1.428-4.409,3.506-4.409s3.271,1.512,3.325,4.229h-5.367c0.036,1.35,0.126,1.998,0.343,2.574
			c0.379,0.973,1.048,1.459,2.042,1.459c1.265,0,2.078-0.828,2.295-2.359H44.832z M43.368,7.111
			c-0.09-2.125-0.705-3.116-1.897-3.116c-1.139,0-1.807,1.063-1.988,3.116H43.368z"/>
		<path fill="#FFFFFF" d="M54.481,11.916c-1.355,0.162-1.608,0.217-2.386,0.469c-0.163-0.684-0.181-0.773-0.235-1.439
			c-0.524,1.025-1.229,1.475-2.259,1.475c-1.97,0-3.343-1.836-3.343-4.445c0-2.538,1.374-4.375,3.271-4.375
			c0.994,0,1.5,0.324,2.187,1.404V1.836c0-0.918-0.145-1.045-1.283-1.045V0.468c0.94-0.072,1.825-0.233,2.729-0.468v10.386
			c0,1.08,0.108,1.188,1.319,1.225V11.916z M47.777,7.992c0,2.539,0.687,3.924,1.97,3.924c1.319,0,1.988-1.277,1.988-3.762
			c0-2.7-0.687-4.05-2.042-4.05C48.427,4.104,47.777,5.418,47.777,7.992z"/>
		<path fill="#FFFFFF" d="M62.36,9.431c-0.218,1.855-1.409,2.953-3.217,2.953c-2.223,0-3.633-1.709-3.633-4.447
			c0-2.609,1.428-4.409,3.507-4.409c2.078,0,3.271,1.512,3.324,4.229h-5.367c0.036,1.35,0.127,1.998,0.344,2.574
			c0.379,0.973,1.048,1.459,2.042,1.459c1.265,0,2.078-0.828,2.295-2.359H62.36z M60.896,7.111c-0.09-2.125-0.705-3.116-1.897-3.116
			c-1.139,0-1.808,1.063-1.988,3.116H60.896z"/>
		<path fill="#FFFFFF" d="M64.021,9.414h0.398c0.307,1.639,1.065,2.412,2.349,2.412c1.048,0,1.861-0.701,1.861-1.619
			c0-0.559-0.271-0.918-1.012-1.297c-0.145-0.09,0-0.018-0.452-0.217c-0.614-0.287-0.198-0.09-1.283-0.592
			c-1.318-0.596-1.734-1.117-1.734-2.162c0-1.421,1.103-2.393,2.746-2.393c0.651,0,1.193,0.18,1.809,0.576l0.307-0.738h0.307v2.79
			h-0.396c-0.163-1.44-0.777-2.124-1.881-2.124c-0.975,0-1.716,0.648-1.716,1.477c0,0.577,0.271,0.899,1.012,1.278
			c0.163,0.09,0.524,0.252,0.903,0.414l0.76,0.324c1.355,0.594,1.843,1.188,1.843,2.232c0,1.512-1.211,2.592-2.909,2.592
			c-0.795,0-1.482-0.234-2.169-0.738l-0.434,0.791h-0.308V9.414z"/>
		<path fill="#FFFFFF" d="M70.761,6.984h4.645v0.811h-4.645V6.984z"/>
		<path fill="#FFFFFF" d="M80.736,0.198c2.277,0,3.561,1.062,3.561,2.934c0,1.261-0.669,2.16-1.97,2.665
			c1.645,0.342,2.548,1.385,2.548,3.006c0,1.098-0.596,2.195-1.5,2.771c-0.723,0.469-1.481,0.631-2.837,0.631h-4.554v-0.434
			c1.337-0.107,1.481-0.232,1.481-1.205v-8.73c0-0.972-0.181-1.116-1.481-1.206V0.198H80.736z M80.212,5.652
			c1.734,0,2.476-0.738,2.476-2.484c0-1.674-0.65-2.412-2.169-2.412h-1.535v4.896H80.212z M78.984,10.728
			c0,0.773,0.162,0.918,1.102,0.918h0.669c1.608,0,2.512-1.008,2.512-2.809c0-1.816-0.795-2.627-2.565-2.627h-1.717V10.728z"/>
		<path fill="#FFFFFF" d="M93.313,9.431c-0.218,1.855-1.409,2.953-3.217,2.953c-2.223,0-3.632-1.709-3.632-4.447
			c0-2.609,1.427-4.409,3.506-4.409c2.078,0,3.271,1.512,3.324,4.229h-5.367c0.037,1.35,0.127,1.998,0.344,2.574
			c0.379,0.973,1.048,1.459,2.043,1.459c1.264,0,2.077-0.828,2.294-2.359H93.313z M91.849,7.111
			c-0.09-2.125-0.705-3.116-1.897-3.116c-1.139,0-1.808,1.063-1.987,3.116H91.849z"/>
		<path fill="#FFFFFF" d="M94.578,3.924c1.065-0.145,1.681-0.288,2.385-0.54c0.109,0.414,0.162,0.9,0.199,1.565
			c0.668-0.989,1.391-1.403,2.457-1.403c1.681,0,2.621,1.098,2.621,3.061v4.318c0,0.775,0.198,0.92,1.301,0.973v0.361
			c-0.939-0.09-1.355-0.109-2.042-0.109c-0.542,0-1.03,0.02-1.897,0.109v-0.361c0.958-0.035,1.193-0.217,1.193-0.936v-4.41
			c0-1.548-0.471-2.197-1.573-2.197c-1.265,0-1.915,0.774-1.915,2.269v4.338c0,0.719,0.234,0.9,1.175,0.936v0.361
			c-0.868-0.074-1.356-0.109-1.898-0.109c-0.687,0-1.084,0.02-2.023,0.109v-0.361c1.12-0.053,1.301-0.197,1.301-0.973V5.364
			c-0.018-1.063-0.054-1.099-1.048-1.116h-0.234V3.924z"/>
		<path fill="#FFFFFF" d="M109.431,4.176h-2.006c-1.175,0-1.465,0.252-2.098,1.873h-0.379l0.416-2.34h6l-4.916,8.028h2.115
			c1.21,0,1.734-0.486,2.276-2.123h0.38l-0.471,2.592h-6.216L109.431,4.176z"/>
	</g>
</g>
</svg>
